<?xml version="1.0" encoding="utf-8"?>
<!-- Generator: Adobe Illustrator 26.5.0, SVG Export Plug-In . SVG Version: 6.00 Build 0)  -->
<svg version="1.1" id="Layer_1" xmlns="http://www.w3.org/2000/svg" xmlns:xlink="http://www.w3.org/1999/xlink" x="0px" y="0px"
	 viewBox="0 0 512 512" style="enable-background:new 0 0 512 512;" xml:space="preserve">
<g id="XMLID_29_">
	<path id="XMLID_44_" d="M108.13,297.19c-3.51,0.28-8,1.82-11.08,7.29c-2.52,4.49-8.28,5.19-10.94,4.21
		c-4.49-1.54-10.24-2.52-15.85,1.4c-5.61,3.93-11.64,0.98-10.52-6.31c1.12-7.29,3.65-13.75,10.66-17.81
		c15.29-8.7,4.63-14.87,13.05-23.71c8.42-8.84,6.45-11.5,6.31-23.43c-28.33-4.21-44.33-12.34-62.28-34.79
		C9.38,181.89,2.51,163.38,0.69,135.32S0.41,89.03,12.61,65.89C24.67,42.6,37.44,31.38,59.6,19.74s43.76-14.45,63.82-14.03
		c20.06,0.28,33.38,1.82,44.75,8.28c11.36,6.45,21.6,14.59,28.19,14.59c6.59,0,11.08-1.68,14.31-4.07
		c0.84,21.74-18.66,23.57-36.19,24.13c-17.53,0.42-28.19-6.73-44.33-4.07c-16.13,2.67-42.5,10.1-55.41,32.4
		c-12.9,22.44-13.33,30.3-12.2,49.09s17.25,32.82,26.37,32.96c9.12,0.14,11.22-2.52,19.08-7.71c8-5.19,48.67-55.69,62.7-67.05
		c13.89-11.36,27.63-14.87,42.5-15.01c14.87-0.14,18.66,0.28,30.58,5.19c11.92,4.91,19.36,13.89,28.9,19.5
		c4.91-2.95,8-7.29,12.48-10.52c16.13-11.78,24.55-15.01,43.76-13.19c11.08,1.12,24.97,7.43,33.24,14.59
		c14.73,12.9,27.07,30.72,36.89,44.33c7.71,10.66,16.69,23.29,29.6,27.21c14.17,4.35,24.69-13.89,26.23-24.13
		c0.84-5.75,2.1-10.8,2.1-17.11c0-6.31-0.7-14.03-2.52-20.62s-4.91-13.19-8.28-18.52c-5.47-8.84-14.45-18.09-23.85-22.86
		c-5.19-2.67-17.67-7.57-25.39-7.71c-9.54-0.14-16.83,2.95-25.67,3.65c-10.66,0.7-29.74,3.09-38.15-5.19
		c-5.33-5.19-6.03-8.7-6.87-15.57c2.38,1.96,5.61,3.23,8.56,3.51c6.73,0.56,12.9-4.91,18.38-8c4.49-2.67,10.8-7.29,16.55-9.68
		c15.01-6.03,33.38-5.89,49.24-4.21c12.76,1.26,29.18,7.01,40.26,13.19c11.22,6.31,22.02,16.97,29.88,27.07
		c9.96,12.62,15.43,23.57,18.94,39.28c4.63,20.2,5.89,50.5,0.28,70.42c-4.35,15.71-18.94,39.7-31.28,51.48
		c-12.2,11.64-26.37,17.25-42.36,20.34c0.56,3.23,0.7,6.31,1.54,8.98c1.12,3.79,3.37,8,8.14,6.59c1.82-0.56,2.81-0.98,5.33,1.12
		c2.38,2.1,1.12,10.38-5.75,14.03c-3.51,1.82-7.15,2.24-12.76,2.38c-5.61,0.14-14.31,0.14-20.34-0.98
		c-6.03-1.12-9.68-5.89-16.41-6.59c-10.38-1.12-18.24-8.7-26.51-14.03c-3.51-2.24-4.63-2.24-6.59-3.37
		c1.12,3.37,2.52,6.73,3.23,9.96s0.42,6.17,0.84,8.7c0.42,2.52,1.12,4.49,1.54,6.59c1.68,1.54,2.24,3.79,4.91,4.49
		c2.81,0.7,7.15-0.42,9.96-0.84c2.81-0.42,4.77-1.96,7.01-1.54c2.24,0.42,4.35,1.96,6.17,3.51c1.82,1.54,3.51,1.68,5.05,5.47
		c1.54,3.79,2.95,11.36,3.09,16.55c0.14,5.19-0.42,9.82-1.82,13.89c-1.54,4.07-2.81,5.89-7.01,9.96
		c-4.07,4.07-10.8,9.96-17.53,14.03c1.26,1.82,1.82,3.51,3.65,5.47c1.96,1.96,5.89,4.21,7.71,6.31c1.82,2.1,2.67,3.65,2.67,5.89
		c0,2.38-0.14,5.33-1.96,8c-4.77,6.31-10.38,7.43-17.11,10.52c1.12,7.15,2.1,12.2,0.42,19.36c-0.7,2.95-2.24,9.54-5.75,11.22
		c-3.65,1.68-10.52,0.84-14.87,1.54s-6.87,1.4-10.24,2.1c-2.1,2.95-5.19,6.31-6.17,8.98c-1.12,2.67-0.7,3.65,0.14,6.45
		s3.93,6.73,4.77,9.96c0.84,3.23,0.98,6.73,0.28,9.96c-0.84,3.23-2.24,5.61-4.91,8.42c-2.81,2.81-8.14,5.05-10.8,7.43
		c-2.67,2.38-5.33,2.67-4.63,6.45c0.98,5.33,8.7,13.89,14.31,15.85c3.37,1.26,7.86,0.84,11.92-0.84c-0.28,4.49-4.21,7.57-6.73,10.52
		c6.87-1.96,13.61-5.75,18.24-10.8c-1.4,4.35-6.31,11.36-13.75,17.39c-7.43,6.17-7.29,4.91-10.94,7.29c6.73,1.4,12.9,0.98,18.09,0
		c-2.81,1.54-7.43,3.79-13.75,4.49c-6.17,0.7-9.96,0.14-15.57-1.12c-5.61-1.4-10.66-6.45-17.39-9.96c0.7,2.52,1.12,5.47,3.93,8.14
		c2.81,2.52,7.15,3.93,11.64,6.17c-5.75-0.7-11.92-0.84-17.67-2.1c-4.21-0.98-7.01-1.96-10.1-3.51c-3.09-1.54-5.47-3.79-8.28-5.61
		c1.26,2.52,1.68,5.47,3.93,7.57c2.24,2.1,5.89,2.81,8.84,4.21c-3.09,0-6.03,0.56-9.12-0.14c-3.23-0.84-6.17-2.1-9.4-4.49
		c-3.37-2.38-6.73-5.47-9.54-8.42c-2.81-3.09-6.31-7.01-7.29-9.82c-1.12-2.81,0.7-4.77,0.98-7.15c-1.96,1.26-4.35,1.96-5.89,3.79
		c-1.54,1.82-2.81,3.51-2.1,6.73s3.65,7.15,5.75,10.8c-6.31-5.19-9.82-7.15-11.36-13.33c-1.4-5.75,2.24-11.08,4.91-15.43
		c1.4-2.24,3.37-4.21,4.63-6.31c-2.81-2.81-6.03-5.19-8.56-8.28c-2.38-3.23-3.51-7.43-5.89-10.52c-2.52-3.09-5.89-4.91-8.7-7.43
		c2.52,5.47,6.73,12.2,7.71,16.55c0.98,4.21-0.98,6.87-2.52,9.12c-1.54,2.24-3.93,2.81-6.31,4.21c-2.24,1.4-5.89,0.28-7.29,2.38
		s-1.68,5.19-0.42,7.29l5.47,8.56c-1.96-0.98-5.47-3.93-7.01-6.03c-1.54-2.1-3.93-3.93-4.21-6.73c-0.28-2.81-0.42-5.19,1.26-7.71
		c1.82-2.52,6.73-3.37,8.98-5.19c2.24-1.96,3.51-3.23,3.37-5.61c-0.14-2.52-2.52-4.21-4.63-5.75c-6.31-4.77-14.45-9.12-19.92-14.87
		c-3.09-3.23-4.49-5.89-5.19-8.14c-0.56-2.24,0-3.93,1.54-6.73c1.54-2.81,6.73-6.45,7.29-9.4s-1.96-3.65-4.35-4.63
		c-2.38-1.12-6.87,0.56-9.12-1.26s0.7-5.75-1.82-7.86s-8.14-0.98-11.08-3.23c-2.95-2.24-4.07-5.05-5.19-8.42
		c-0.98-3.37-1.12-6.87-0.42-9.26c0.7-2.38,2.67-2.81,3.93-4.07c1.26-1.26,2.24-2.24,0.7-4.07c-1.68-1.82-7.01,0.14-10.1-2.24
		c-3.09-2.38-1.26-8-3.37-10.38c-2.24-2.38-6.17-1.4-8.28-2.24c-2.1-0.7-2.95,1.96-4.21-2.38c-1.26-4.21-1.26-16.97-3.09-21.74
		c-1.68-4.77-5.05-0.28-6.59-5.05c-1.54-4.77-0.14-12.2-0.84-19.36l-3.23-19.36c-11.08,7.43-18.52,9.82-30.44,11.92
		c-0.98,29.32-3.79,46.57,6.17,78.97c9.96,32.54,30.02,51.62,57.23,79.11c-35.77-26.79-52.88-48.67-63.54-76.59
		C105.05,347.41,107.15,323.99,108.13,297.19z M298.48,285.41c2.81,0.14,6.17,0.84,8,2.1c1.96,1.26,3.93,2.24,5.75,4.07
		c4.35,4.49,7.71,9.82,9.12,15.99c0.98,3.93,1.12,8.98,1.4,13.61c-1.26-4.35-2.24-8.7-4.07-12.62c-2.95-6.03-8-11.92-14.31-14.73
		c-2.1-0.84-3.51-0.7-4.63-0.56c0.56,0.84,1.4,1.54,1.4,2.81c0,1.26-0.28,3.65-2.38,4.77c-3.37,1.68-7.29,0.56-9.96-1.82
		c-2.67-2.38-3.65-6.31-2.24-9.82C288.38,285.27,294.69,285.27,298.48,285.41z M263.98,279.52c0.28-7.01,2.95-12.9,9.12-16.41
		c3.23-1.82,8.28-4.07,12.9-4.63c4.49-0.56,15.15-0.14,21.74,2.81c5.05,2.24,8.42,5.75,12.76,8.42c4.35,2.52,7.43,4.35,11.64,7.15
		c6.45,4.49,10.1,9.4,14.59,12.34c2.1,1.4,5.19,1.26,8,2.1c-2.24,0.7-5.05,1.4-7.43,0.56c-2.95-0.98-7.15-3.65-9.4-5.61
		c-4.07-3.37-6.17-5.05-10.52-7.71c-2.67-1.54-7.01-3.37-9.96-5.19c-2.95-1.96-8-6.03-10.8-7.43c-3.51-1.82-9.96-2.81-13.89-2.67
		c-5.47,0.14-13.33,1.12-17.53,4.91c-4.21,3.79-5.75,7.15-4.77,12.06c1.54-1.82,2.67-4.07,4.21-5.47c3.23-2.81,7.01-2.95,11.08-2.38
		c4.63,0.56,6.87,3.23,8.42,7.57c-0.98-0.7-2.95-2.38-4.35-2.95c-3.51-1.26-6.03-0.84-9.26,0.98c-3.79,2.1-2.81,5.05-3.37,8.42
		c-0.28,1.54-0.84,2.81-1.26,4.21c-1.4-0.42-2.81-0.98-3.93-2.1c0,1.54-0.14,2.95,0.14,4.77c0.28,1.82,1.12,3.93,1.82,5.89
		c-2.67-2.67-5.33-5.19-7.15-8.56C264.96,287.1,263.7,283.31,263.98,279.52z M268.6,228.32c1.96-2.95,2.52-7.43,3.79-11.08
		c-0.42,4.63,0.42,9.68-1.82,13.05c-2.24,3.37-6.17,2.81-9.54,3.79C263.55,232.11,266.64,231.27,268.6,228.32z M221.47,296.63
		c2.52-2.1,9.4-0.42,14.45,0c-3.65,0.98-7.29,1.82-10.94,2.81c-0.28,1.26-0.14,2.67-0.98,3.79c-0.84,1.12-2.38,1.4-3.65,2.24
		C220.35,302.1,218.95,298.74,221.47,296.63z M257.38,154.82c3.09,1.68,6.87,3.79,9.54,3.93c2.67,0,3.37-1.82,4.91-2.81
		c2.52,8.14,5.33,16.97,9.54,24.41c1.82,3.09,2.95,1.68,4.21,4.77c1.4,3.09,1.96,9.4,3.23,13.33s2.95,6.87,4.49,10.24
		c-3.79-5.33-8.56-12.06-10.66-16.41s-0.7-4.77-2.38-8.98c-1.68-4.21-5.05-10.8-7.71-16.13c-1.82,0.28-4.07,0.56-5.47,0.14
		s-1.12-1.96-2.38-2.81c-1.26-0.98-3.37-0.56-5.19-2.1C257.94,160.71,257.52,157.48,257.38,154.82z M240.97,194.8
		c2.81-0.28,6.45,0.56,9.12,0.42c2.67-0.14,4.63-0.84,6.87-1.26c-0.42-4.07,0-11.5-3.79-14.17c-2.38-1.68-12.34-0.42-14.87,0.14
		c-5.89,1.26-12.9,4.77-18.66,7.01c5.47-3.79,10.24-7.43,16.83-9.4c3.93-1.26,13.19-2.81,17.39-1.68c1.82,0.56,2.24,1.26,3.37,2.81
		c3.93,5.47,3.93,10.1,4.91,16.55c0.98,1.54,2.1,2.52,2.81,4.21c0.84,1.54,1.26,4.07,1.54,6.17c-0.98-1.54-0.42-3.37-3.23-4.49
		c-2.81-1.12-7.15-0.14-10.94,0.28c2.81,1.96,4.21,3.93,4.21,8.14c0.14,4.91-4.07,8.56-8.56,8.84c-6.17,0.42-9.26-0.84-11.78-6.03
		c-1.12-2.24-0.28-5.05-0.42-7.29c-7.29,0.56-7.15,0.28-12.62,4.77c2.95,4.21,4.77,6.73,9.54,9.26c2.67,1.4,5.75,2.81,9.12,3.37
		c3.37,0.56,8.84,1.12,12.34,0.56c3.51-0.56,5.47-1.54,8.14-3.93c2.67-2.38,2.81-5.89,3.93-8.56c-0.28,2.67-0.56,6.03-1.54,7.86
		c-2.95,5.75-8.14,7.57-14.17,7.57c-5.89,0-13.19-1.4-18.66-3.65c-4.35-1.82-11.64-7.01-13.33-11.36
		c-1.12-3.09-0.28-6.73-0.42-10.24c6.03-4.07,7.57-3.09,14.73-4.21C236.06,196.2,238.17,195.08,240.97,194.8z M205.76,167.44
		c0.14-2.38,0.42-2.38,0.7-3.51c-5.47-1.54-7.71,2.1-10.94,8.7c-1.26,2.52,0,3.93-1.26,5.61c-1.26,1.68-3.37,1.4-5.47,2.95
		c-2.1,1.54-4.21,4.63-6.17,6.17c-4.07,3.37-9.54,5.33-14.17,7.57c3.23-2.38,9.4-5.89,11.36-9.4c1.12-1.82,0.84-5.19,2.52-6.87
		c1.68-1.68,2.24-2.81,4.35-3.23c2.1-0.42,1.26-2.95,1.96-4.91s2.1-3.37,3.51-5.33c1.4-1.96,3.37-4.91,6.17-6.03
		c2.95-1.12,7.43,0.14,9.54-0.56c2.24-0.56,0.98-2.24,2.52-3.23c1.54-0.98,4.63-0.56,6.87-1.54c3.79-1.82,5.61-4.77,7.86-8.14
		c0.28,7.01,0.28,12.06-2.24,18.52c-2.81,7.43-5.75,11.78-13.75,16.27c-2.81,1.54-5.47,2.1-7.86,2.95c1.4-1.82,3.23-2.67,4.07-5.47
		C206.04,175.58,205.48,169.83,205.76,167.44z M334.95,201.53c-3.79,0.28-4.77-0.28-7.71,1.96c1.68,2.52,3.37,5.19,4.91,7.71
		C332.01,206.02,332.57,205.04,334.95,201.53z M324.99,197.74c5.33-2.24,9.82-4.07,15.57-4.49c2.24-0.14,5.89,0.28,8.14,0.28
		c1.96-2.95,4.49-5.19,5.47-8.56c0.56-2.24,0.28-12.48-0.84-15.15c-3.09-7.71-6.17-8-10.52-12.48c-3.09-3.23-3.23-8.14-4.21-13.61
		c-0.28-1.96-1.4-4.63-1.82-6.59c-5.61-0.98-11.78-1.26-18.38-0.98c3.23-3.09,6.17-5.75,7.15-10.38c0.84-4.63,0.14-10.1-2.38-14.31
		s-6.73-7.71-10.52-10.94c-3.79-3.37-9.26-6.03-12.9-8.84c4.63-1.68,9.54-4.21,14.03-5.05c11.92-2.38,22.3,1.26,33.81,8.14
		c6.73,4.07,12.2,7.86,19.22,15.29c7.01,7.29,15.71,20.76,22.44,28.76c6.73,8,12.2,14.31,18.24,19.08
		c5.89,4.77,11.22,6.17,16.97,9.12l8.84,9.4l7.15-8.84l11.5,1.26l2.38-12.9l10.52-2.95l-1.68-17.25l7.57-5.33l-5.61-10.8l5.75-11.78
		l-7.57-13.47l2.95-12.9l-8.7-7.43l-1.12-13.75l-12.2-4.63l-4.91-11.92l-13.61-0.14l-6.73-8.84l-9.26,0.7l-10.24-1.12l-5.75-4.21
		l-8.42,5.61l-10.24-5.33l-20.2,7.71l13.19-11.5l13.61-2.24l10.52-2.67l14.17,4.63l12.48-3.09l11.92,7.15l12.62-0.7l6.17,11.22
		l12.62,1.4l6.87,12.48l8,4.35l2.1,15.99l7.01,6.73l-3.09,13.89l8.28,10.52l-7.86,11.36l8.42,7.01l-10.66,9.54l10.8,11.22
		l-13.05,4.21l8.56,12.06l-10.66,1.82l7.01,13.33l-12.06-0.14l6.03,9.96l-13.19-1.54l3.23,14.31l-9.96-8.84l-3.37,17.39l-6.87-12.48
		l-3.79,15.57l-8.56-11.5l0.28,16.27l-9.4-14.73c1.96,8.28,1.54,17.39,7.01,25.25c16.97-2.24,28.05-6.59,40.96-19.08
		c11.78-11.36,25.95-35.07,29.74-50.08c4.35-17.11,4.49-48.67,0.14-66.21c-4.07-16.83-9.54-24.83-19.08-38.57
		c-9.12-9.68-18.24-20.06-29.88-26.93c-17.11-10.24-39-12.9-58.49-12.62c-10.8,0.14-17.95,2.24-24.41,4.63
		c-11.22,4.07-20.34,13.05-31.84,17.53c-3.79,1.4-6.73,1.54-9.68-0.14c2.95,5.75,6.03,8.42,13.19,10.52
		c5.19,1.54,17.67,0.56,26.23-0.28c9.12-0.84,14.03-3.51,26.51-3.37c12.2,0.14,21.88,4.77,27.21,7.86
		c10.94,6.17,18.66,13.19,25.53,24.13c3.79,6.03,6.31,12.76,8.14,19.78c1.82,6.87,2.67,14.73,2.81,21.46s-0.42,12.76-2.1,18.94
		c-3.93,14.31-12.48,28.76-30.02,26.51c-10.8-1.4-26.93-21.6-32.4-29.04c-10.94-15.01-22.3-31.56-36.05-43.9
		c-8.42-7.57-19.92-12.76-31.14-13.89c-21.18-1.96-27.49,2.1-43.34,15.29c3.23,0.98,6.45,1.54,9.68,3.09
		c7.43,3.37,14.17,7.57,20.06,13.19c6.17,5.75,8.98,9.4,9.12,17.67c0.14,5.47-4.35,9.96-8.56,13.89c-2.52,2.38-5.89,4.63-8,6.59
		c-2.67,2.52-6.03,5.19-2.67,9.26c1.26,1.54,3.51,2.67,5.33,4.07c2.95,2.24,1.68,10.52-2.38,12.62c-5.05,2.81-11.08,2.52-15.15-1.26
		c5.19-0.84,8.56-1.54,8.42-5.75c-0.14-2.52-3.23-4.49-6.31-6.03c-7.43-3.37-13.19-2.95-20.62-8.28c-7.57-5.47-7.71-8.42-9.68-16.83
		c-3.65,0.42-7.01,0.42-11.78,2.1c-4.91,1.54-10.24,5.47-14.59,6.31c-11.08,2.38-13.33,1.68-19.36,0.14
		c-10.66-2.81-24.55,1.96-38.43,6.45c-2.24,0.7-11.64,0-17.81,2.24c-9.68,3.37-23.14,11.64-31,18.24
		c-11.92,9.96-27.49,39.84-36.19,74.2c-0.98,10.38,2.1,17.39-4.49,22.58c-6.59,5.05-6.45,18.09-8.56,21.74
		c-2.24,3.65-4.77,2.1-9.54,7.15c-4.77,5.19-7.29,4.35-7.15,14.03c4.07-2.67,10.1-5.89,15.43-6.03c4.63-0.14,4.77,6.03,16.69-5.89
		c6.45-6.31,18.8-6.59,27.35-9.4s23.99-8.56,39.56-25.81c15.43-17.25,22.86-35.49,25.81-61.86c0.42,4.63,1.26,9.96-0.7,22.86
		s-6.31,27.35,2.81,44.61l5.61,10.8c-3.37-4.63-9.96-12.06-11.92-17.39l-4.63-12.34c-10.24,15.99-12.62,18.94-26.79,30.44
		c-0.56,7.15-0.7,14.59,1.68,21.32c2.38,6.87-1.4,14.73,0.42,19.22c1.82,4.49,5.89,1.96,7.15,6.45c1.4,4.49-0.7,13.61,1.4,17.95
		c2.1,4.49,7.15,1.68,9.68,3.23c2.52,1.4,3.23,3.37,4.63,5.33c1.26,1.82-0.56,6.31,2.1,7.71s6.87,0.28,9.68,1.54
		c2.81,1.4,3.23,4.77,2.52,7.71s-3.65,4.35-4.91,7.43c-1.26,3.09-1.12,5.19,0.42,8c1.54,2.81,5.05,4.35,8.56,5.75
		s8.42,0.56,11.92,2.52c3.65,1.96,6.87,5.89,8.7,8.7c1.82,2.81,2.38,4.77,2.38,7.71c-0.14,2.95-1.26,6.31-2.95,9.26
		c-1.68,2.95-5.05,6.31,0.42,11.78c5.47,5.47,5.19,3.09,8.42,6.59c-0.28-6.17-2.95-11.08-0.98-15.71c1.82-4.63,7.43-5.47,10.38-7.43
		c2.95-2.1,4.63-4.91,6.87-7.43c0,3.23,0.28,6.59,0,8.98c-0.7,4.91-2.1,9.12,5.05,9.96c3.23,0.28,6.31-1.82,9.82-3.09
		c-1.82,3.23-4.91,5.75-5.33,9.68c-0.42,3.79,0.14,8.14,2.81,11.92c2.67,3.79,7.29,6.59,10.66,8.84s5.19,2.38,7.71,3.65
		c0.14,3.79-0.56,7.86-0.14,11.36s1.54,6.73,3.65,9.68s5.33,4.63,8.56,6.87c-1.68-3.93-5.19-7.71-5.19-11.92
		c0-4.21,1.26-7.15,5.33-10.8c4.07-3.65,13.61-6.87,18.1-10.52s5.89-5.89,7.57-9.4c1.68-3.51,1.12-9.12,1.4-12.34
		c1.54,4.35,1.68,5.75,2.24,10.38c0.42,4.63-2.67,11.08-4.07,14.45c5.61-2.67,9.12-7.01,10.94-11.22c1.26,0.7,0.56,2.67,0.98,6.45
		c1.96-1.96,4.21-3.51,6.31-5.33c1.96-1.82,4.21-3.51,5.19-6.17c0.98-2.67,0.56-5.33-0.14-8.42c-0.7-3.09-4.07-6.59-5.89-9.82
		c-1.82-3.37,0.28-6.59,0.14-10.52c-3.65-0.56-6.73-2.52-10.94-1.82c-4.21,0.56-8.98,5.33-13.33,5.33c-4.21,0-6.73-3.93-10.24-5.05
		c-3.51-1.12-7.01-0.98-10.52-1.4c4.49-4.35,21.74-6.31,33.67-8.28c10.38-1.68,20.76-2.67,31.42-2.81c4.77,0,10.8,1.54,14.03,0.56
		s2.52-3.23,3.51-5.61c2.67-6.87,1.4-12.9-0.14-19.78c-9.54-1.12-19.36-2.52-28.9-1.68c-9.4,0.7-20.48,5.19-30.02,5.47
		c-8.42,0.28-20.76-1.54-28.05-6.03c-8.84-5.33-15.57-16.83-17.95-20.62c-3.93-6.03-8.84-17.81-11.92-23.29
		c-3.09-5.47-3.65-6.87-6.17-9.12c-2.52-2.24-5.89-2.38-8.98-3.65c3.37,0.28,7.15-0.7,10.24,0.98c4.63,2.67,9.96,13.89,12.76,18.66
		c3.09-10.38,2.38-14.45,11.36-20.2c-7.15,8.14-7.43,14.17-9.12,23.71c6.03,9.82,14.31,25.53,25.25,29.88
		c3.93,1.54,10.66,2.52,14.87,3.09c13.19,1.68,25.95-2.52,39-5.75c9.54-2.38,19.08-1.4,30.72-0.7c3.93,0.28,13.19-2.1,15.15-6.03
		c0.98-2.1,0.98-4.77-0.56-7.01s-5.47-3.37-7.57-5.47s-3.37-4.49-5.05-6.73c-8.84,1.68-16.13,2.38-22.58,2.52
		c4.63-1.96,9.26-3.09,14.03-4.91c4.91-1.96,10.38-5.05,14.45-7.71c3.93-2.67,6.45-4.07,9.26-7.15c2.81-3.09,6.45-6.17,8.56-9.82
		s2.38-7.86,2.52-12.48s-0.14-11.08-1.82-14.73c-1.82-3.65-5.19-4.77-7.86-5.75c-2.81-0.84-4.63,1.4-7.43,1.68
		c-2.81,0.28-5.47,2.1-9.68,0.14c-4.07-1.96-8.98-5.89-13.19-11.78c-4.21-5.89-7.15-15.43-11.36-22.72
		c-7.29-12.62-16.41-24.55-25.11-36.33c-0.7-2.95-1.82-6.87-2.1-10.8c-0.56-6.87-0.7-14.03,1.4-20.62
		c1.68-5.19,4.07-10.52,9.4-12.62c2.1-0.84,4.91-1.12,6.73-0.42c1.96,0.7,3.79,2.81,3.09,5.33c-0.84,2.81-2.67,2.81-4.07,4.21
		c-2.24,2.38-3.09,4.07-3.93,7.01c2.38,0,5.61-0.28,7.57,0.28c2.52,0.7,4.91,2.38,6.17,6.03c-3.09-2.67-4.49-3.93-8.28-4.07
		c-1.68,0-3.79,0.56-5.75,0.84c-0.7,2.38-1.12,5.19-2.1,7.01c-0.98,1.82-2.95,1.4-3.79,3.51
		C324.71,191.57,324.71,195.08,324.99,197.74z M351.65,194.66c1.12,0.42,1.54,0.56,3.09,1.68c1.54,1.12,3.51,2.24,4.63,4.91
		c1.12,2.67,1.12,6.87,0.84,8.56c-0.98-0.28-2.38-0.14-3.51-0.98c-1.12-0.84-1.68-2.95-3.09-3.79c-1.4-0.84-2.52-0.7-4.07-0.84
		c0.84,2.24,1.12,4.35,0.84,6.45c-0.84,4.35-3.37,6.59-7.43,7.01c-1.82,0.28-4.63-0.42-6.31-0.7c0.7,1.68,1.96,3.09,2.67,4.63
		c3.51-0.56,6.03-0.42,8-1.26c1.82-0.84,3.93-2.81,6.31-3.65c2.38-0.84,4.63-0.84,7.15-1.26c-2.1,1.82-3.51,3.65-5.47,5.33
		c1.54,4.49,3.09,8.84,4.63,13.33c3.23,1.96,6.31,3.09,10.38,5.61s8.98,7.01,14.31,9.4c5.33,2.38,8.42,3.79,14.03,4.77
		c5.61,0.98,9.96,5.61,15.43,6.31c5.47,0.7,15.71,0.84,19.92,0.42c4.77-0.42,10.94-2.95,11.5-8.14c-4.07,0.98-10.1,0.14-13.19-7.43
		c-1.4-3.37-0.7-9.54-2.81-13.47s-5.05-5.19-8.56-10.1c-3.51-4.91-9.26-12.62-12.48-19.08c-3.23-6.59-3.93-13.89-6.73-19.78
		c-2.67-5.89-6.87-10.52-9.96-15.15c-6.87-9.82-12.48-16.55-23.99-21.6c-5.47-2.38-11.78-3.09-17.67-4.49
		c-2.38,1.12-5.61,2.24-6.31,5.05c-0.56,2.81,0.56,6.87,2.52,8.98c3.37,3.51,8.42,7.29,10.38,12.9c1.26,3.51,1.68,15.57,0.56,18.8
		C356.41,190.31,353.75,192.41,351.65,194.66z M352.63,222.99c-1.12,0.98-1.82,1.82-3.51,2.67c-1.68,0.7-4.07,0.98-6.31,1.54
		c3.23,4.91,6.45,9.96,9.54,15.15s5.61,10.8,8.56,16.27c-0.14-3.09,0-6.45-0.42-9.4c-0.42-2.95-1.82-5.47-3.09-9.82
		C356.13,235.05,354.59,229.02,352.63,222.99z M267.34,114.42c-0.42,4.91,0.42,12.48,1.4,17.25c1.26,5.75,2.38,8.7,7.01,12.06
		c8.42,6.31,13.89,5.19,20.34,8.84c3.09,1.68,7.01,4.63,8.14,7.71c1.12,3.09-0.7,6.45-3.09,7.71c4.07,0.56,8.7-4.07,6.73-8.84
		c-0.98-2.38-5.47-3.37-6.87-5.75c-1.4-2.38-1.4-4.77-0.7-7.15c1.12-4.35,9.68-8.28,12.76-11.64c4.63-5.19,6.45-9.68,3.79-16.41
		c-3.65-9.54-17.95-17.11-26.51-20.9c-3.93-1.68-6.17-1.82-9.12-2.81c6.31,3.65,12.9,6.59,15.99,14.73
		c2.67,6.87,0.42,9.4,0.42,15.43c0,2.81,3.65,4.21,5.33,5.89c1.4,1.54,1.26,2.67,0.14,4.77c-0.14-1.82-0.98-3.23-2.38-4.35
		c-2.38-1.68-4.91-1.26-6.31-4.77c-1.96-5.33,1.96-10.24-2.38-16.27c-3.23-4.49-7.57-9.4-13.33-9.54c-2.81,0-4.77,0.42-7.71,1.26
		l-3.93-4.63h-0.14c-8-7.29-13.33-13.19-24.55-18.24c-11.08-4.91-16.55-5.75-29.32-5.47c-12.76,0.28-25.39,1.4-40.26,14.17
		c-14.73,12.76-52.88,61.58-62.14,67.75c-9.26,6.17-11.22,8.28-22.86,8.28c-11.5,0-29.6-16.27-30.3-36.75
		c-0.7-20.34-0.98-27.63,13.19-52.18s39.84-32.12,58.91-34.65c19.08-2.52,30.58,4.21,44.61,4.21c14.17,0,28.05-2.38,32.12-13.61
		c-1.96,1.26-4.77,2.52-12.34,2.1c-7.57-0.42-18.09-9.12-29.88-15.01c-11.78-5.89-24.97-6.59-41.8-6.87
		c-16.83-0.28-37.87,0.98-58.77,12.2S28.46,46.11,16.4,68.27C4.33,90.29,2.51,108.25,4.47,135.04
		c1.96,26.65,10.24,46.57,26.09,66.07s31.7,29.04,60.32,32.68l6.03-26.51l-10.8,15.43l0.28-17.11l-9.68,12.06l-4.21-16.27
		l-7.86,13.05l-3.93-18.24l-11.36,9.26l3.65-15.01l-15.15,1.68l6.87-10.52l-13.75,0.14l8-14.03l-12.2-1.96L36.46,153l-14.73-4.63
		l12.34-11.78l-12.2-9.96l9.54-7.43l-8.98-11.92l9.54-11.08L28.46,81.6l8.14-7.01l2.38-16.69l9.12-4.63l7.86-13.05l14.45-1.54
		l7.15-11.78L92,27.59l13.75-7.43l14.17,3.37l16.13-4.91l11.92,2.81l15.57,2.24l15.01,12.06l-23.14-8.14l-11.64,5.61l-9.68-5.89
		l-6.59,4.49l-11.64,1.12l-10.52-0.7l-7.71,9.4l-15.57,0.14l-5.61,12.62l-13.89,4.91l-1.26,14.45l-9.96,7.86l3.37,13.61l-8.56,14.17
		l6.59,12.34l-6.45,11.36l8.7,5.61l-1.96,18.24l12.06,3.09l2.67,13.47l13.05-1.4l8.14,9.26l10.1-9.82
		c18.24-9.12,25.81-14.17,40.12-29.6c16.27-17.53,25.53-33.81,47.13-45.87c15.57-8.56,28.19-11.78,45.59-8.7
		c16.41,2.81,21.88,12.62,33.95,23c1.26-2.24,1.54-2.95,3.65-4.63C268.74,108.53,267.62,111.62,267.34,114.42z"/>
</g>
</svg>
